#!OML:ASF F:\VICON\USERDATA\INSTALL\rory3\rory3.ASF
:FULLY-SPECIFIED
:DEGREES
1043
root 8.87999 16.8334 28.1008 -328.191 27.0634 362.845
lowerback -20.91 -5.60482 1.73591
upperback -16.4739 -7.2452 1.81974
thorax -6.49171 -3.62216 -0.0676201
lowerneck -14.7168 0.26263 -1.61985
upperneck 39.2164 -0.063837 2.91718
head 16.6027 0.217607 1.5984
rclavicle 8.61732e-014 5.52621e-014
rhumerus -24.447 -68.021 20.9261
rradius 15.6929
rwrist 34.3571
rhand 3.26414 3.31389
rfingers 7.12502
rthumb 28.7129 -24.4989
lclavicle 8.61732e-014 5.52621e-014
lhumerus 63.6069 2.56841 21.3805
lradius 29.0785
lwrist -15.0837
lhand 8.60354 23.2652
lfingers 7.12502
lthumb 33.8007 50.093
rfemur -56.2957 1.82728 26.3569
rtibia 38.8033
rfoot -46.3672 -37.0036
rtoes 44.3512
lfemur -9.74086 -4.20152 -22.4978
ltibia 27.719
lfoot -11.7373 45.4179
ltoes 41.6305
1044
root 8.87557 16.832 28.1024 -328.248 27.0171 362.73
lowerback -20.9094 -5.60374 1.81569
upperback -16.4078 -7.25874 1.88451
thorax -6.41556 -3.63319 -0.0490193
lowerneck -14.6102 0.186928 -1.90946
upperneck 39.0904 -0.143551 3.05644
head 16.5112 0.159306 1.69298
rclavicle 5.46658e-015 5.08889e-014
rhumerus -26.0314 -70.0495 22.6458
rradius 15.5807
rwrist 36.541
rhand 3.63746 4.00405
rfingers 7.12502
rthumb 29.0695 -23.7477
lclavicle 5.46658e-015 5.08889e-014
lhumerus 63.423 2.61411 20.8953
lradius 29.3004
lwrist -14.8932
lhand 7.96668 23.9639
lfingers 7.12502
lthumb 33.1953 50.9227
rfemur -56.2904 1.91602 26.4565
rtibia 38.7884
rfoot -46.3815 -36.971
rtoes 44.5645
lfemur -9.73972 -4.27114 -22.4206
ltibia 27.7623
lfoot -13.4346 45.0592
ltoes 42.4149
1045
root 8.87521 16.8339 28.1034 -328.104 26.8971 362.911
lowerback -20.8031 -5.5979 1.73837
upperback -16.6045 -7.23431 1.7986
thorax -6.70259 -3.61943 -0.0684385
lowerneck -14.125 0.123763 -2.07766
upperneck 39.032 -0.236753 3.16611
head 16.3624 0.109657 1.74861
rclavicle -2.76311e-014 -2.38542e-015
rhumerus -22.7259 -66.0169 18.9267
rradius 15.8688
rwrist 32.1315
rhand 2.95254 2.55785
rfingers 7.12502
rthumb 28.4152 -25.305
lclavicle -2.76311e-014 -2.38542e-015
lhumerus 63.0959 2.14401 19.9457
lradius 29.6627
lwrist -14.2462
lhand 7.89851 24.443
lfingers 7.12502
lthumb 33.1305 51.4156
rfemur -56.386 1.46801 26.564
rtibia 38.8159
rfoot -45.853 -36.6943
rtoes 44.5796
lfemur -9.79015 -4.35056 -22.645
ltibia 27.738
lfoot -12.1695 45.2745
ltoes 41.7276
1046
root 8.84043 16.8159 28.1317 -327.713 26.2511 363.282
lowerback -20.9949 -5.6853 0.72311
upperback -16.8591 -7.19275 1.76478
thorax -6.77869 -3.50322 0.44916
lowerneck -13.6881 0.104084 -1.96583
upperneck 39.114 -0.275426 3.08187
head 16.2984 0.0977156 1.68283
rclavicle 2.66371e-014 -1.27222e-014
rhumerus -19.0946 -56.9983 14.5177
rradius 16.4306
rwrist 23.2172
rhand 2.30674 1.07013
rfingers 7.12502
rthumb 27.7979 -26.894
lclavicle 2.66371e-014 -1.27222e-014
lhumerus 62.8164 1.48283 18.7809
lradius 29.9664
lwrist -13.1857
lhand 7.90582 24.4724
lfingers 7.12502
lthumb 33.1375 51.4435
rfemur -56.8165 4.35847 24.3653
rtibia 38.8478
rfoot -48.1607 -38.8507
rtoes 44.6403
lfemur -9.98133 -4.37781 -23.1389
ltibia 27.6614
lfoot -14.0221 44.9245
ltoes 42.6844
1047
root 8.83842 16.8159 28.1325 -327.704 26.2982 363.205
lowerback -20.9957 -5.55283 0.773116
upperback -16.3741 -7.04239 1.8176
thorax -6.20186 -3.43259 0.461409
lowerneck -15.6246 -0.0621493 -2.32486
upperneck 39.377 -0.412408 3.154
head 16.9356 -0.0002417 1.78144
rclavicle -9.24349e-015 -2.78299e-014
rhumerus -25.1251 -68.1462 21.589
rradius 15.8901
rwrist 33.596
rhand 2.89804 2.57292
rfingers 7.12502
rthumb 28.3631 -25.2986
lclavicle -9.24349e-015 -2.78299e-014
lhumerus 63.3003 2.28257 18.4927
lradius 29.9687
lwrist -12.5874
lhand 7.6833 24.5262
lfingers 7.12502
lthumb 32.9259 51.542
rfemur -56.8494 4.23252 24.5612
rtibia 38.8639
rfoot -47.9335 -38.7935
rtoes 44.5295
lfemur -9.94968 -4.52344 -23.0427
ltibia 27.5695
lfoot -16.3238 44.4356
ltoes 43.7526
1048
root 8.8353 16.8164 28.1335 -327.699 26.2558 363.176
lowerback -20.9033 -5.54575 0.806054
upperback -16.4486 -7.03705 1.82435
thorax -6.33857 -3.43211 0.466207
lowerneck -15.5592 -0.0450205 -2.31263
upperneck 39.4915 -0.389869 3.14888
head 16.9805 0.00962268 1.78401
rclavicle -7.73769e-014 -3.85642e-014
rhumerus -19.3363 -56.4496 14.7307
rradius 16.5878
rwrist 21.7304
rhand 2.05468 0.623654
rfingers 7.12502
rthumb 27.5569 -27.3792
lclavicle -7.73769e-014 -3.85642e-014
lhumerus 63.2351 2.22017 18.4424
lradius 29.925
lwrist -12.685
lhand 7.7303 24.3585
lfingers 7.12502
lthumb 32.9706 51.3649
rfemur -56.8642 4.29993 24.5599
rtibia 38.8613
rfoot -47.9413 -38.8061
rtoes 44.5492
lfemur -9.91676 -4.41435 -23.027
ltibia 27.4949
lfoot -16.9037 44.2789
ltoes 44.2872
1049
root 8.8325 16.8149 28.1337 -327.713 26.2565 363.141
lowerback -21.0647 -5.52601 0.799903
upperback -16.2654 -7.01505 1.83345
thorax -6.04089 -3.42135 0.452874
lowerneck -15.792 -0.0628611 -2.30807
upperneck 39.4636 -0.396673 3.10566
head 17.0252 0.0017141 1.76371
rclavicle 4.88016e-014 -3.97569e-015
rhumerus -21.382 -61.7016 17.1845
rradius 16.3488
rwrist 26.688
rhand 2.34161 1.20421
rfingers 7.12502
rthumb 27.8313 -26.7546
lclavicle 4.88016e-014 -3.97569e-015
lhumerus 63.5598 2.65606 18.9942
lradius 29.6763
lwrist -13.2794
lhand 8.04774 23.8461
lfingers 7.12502
lthumb 33.2724 50.7884
rfemur -56.8368 4.08874 24.7678
rtibia 38.8399
rfoot -47.5835 -38.7486
rtoes 44.257
lfemur -9.90694 -4.29457 -22.9889
ltibia 27.4625
lfoot -16.2245 44.3809
ltoes 44.315
1050
root 8.82969 16.8153 28.1353 -327.695 26.2672 363.156
lowerback -20.9153 -5.52104 0.824015
upperback -16.3807 -7.00947 1.82648
thorax -6.25434 -3.42008 0.456334
lowerneck -15.7586 -0.0443336 -2.33278
upperneck 39.5883 -0.369757 3.13097
head 17.0841 0.012495 1.78831
rclavicle -1.62506e-014 -3.69739e-014
rhumerus -22.1831 -63.4186 18.1949
rradius 16.2736
rwrist 28.4745
rhand 2.49293 1.23815
rfingers 7.12502
rthumb 27.9759 -26.6971
lclavicle -1.62506e-014 -3.69739e-014
lhumerus 63.5513 2.59435 19.0417
lradius 29.6494
lwrist -13.4924
lhand 8.29151 23.7799
lfingers 7.12502
lthumb 33.5041 50.6723
rfemur -56.8044 3.78015 24.9887
rtibia 38.8061
rfoot -47.263 -38.4979
rtoes 44.1412
lfemur -9.91853 -4.33312 -22.992
ltibia 27.47
lfoot -15.845 44.4188
ltoes 44.0443
1051
root 8.82651 16.8145 28.1358 -327.626 26.3091 363.147
lowerback -20.367 -5.45667 1.042
upperback -16.9225 -6.94344 1.72816
thorax -7.2107 -3.40763 0.337993
lowerneck -15.1761 -0.0430683 -2.31937
upperneck 39.8607 -0.403203 3.18147
head 17.0862 0.00710915 1.8059
rclavicle 1.55052e-014 9.54166e-015
rhumerus -22.2235 -63.2971 18.3559
rradius 16.178
rwrist 29.1729
rhand 2.3639 1.13661
rfingers 7.12502
rthumb 27.8526 -26.8187
lclavicle 1.55052e-014 9.54166e-015
lhumerus 63.2281 1.76684 18.6093
lradius 29.8731
lwrist -13.1845
lhand 8.20516 24.2225
lfingers 7.12502
lthumb 33.4221 51.1326
rfemur -56.8772 3.66465 25.0838
rtibia 38.7842
rfoot -47.4856 -38.0812
rtoes 44.6971
lfemur -10.0109 -4.33058 -22.9416
ltibia 27.474
lfoot -14.7732 44.664
ltoes 43.3195
1052
root 8.82142 16.8146 28.1388 -327.624 26.4078 363.032
lowerback -21.6162 -5.64956 0.769189
upperback -15.9332 -7.17635 2.01963
thorax -5.35202 -3.49267 0.563391
lowerneck -16.175 0.030959 -2.28513
upperneck 39.3111 -0.207049 2.99717
head 17.0311 0.0679294 1.74459
rclavicle 7.90169e-015 1.90833e-014
rhumerus -23.7391 -67.39 20.0463
rradius 15.8655
rwrist 31.537
rhand 2.22052 1.35153
rfingers 7.12502
rthumb 27.7155 -26.6259
lclavicle 7.90169e-015 1.90833e-014
lhumerus 63.5168 3.46055 18.8476
lradius 29.8325
lwrist -13.3901
lhand 8.15107 24.4216
lfingers 7.12502
lthumb 33.3707 51.3428
rfemur -56.9248 4.20975 24.8655
rtibia 38.7551
rfoot -48.2254 -38.3922
rtoes 44.8952
lfemur -10.0884 -4.26406 -22.7602
ltibia 27.4948
lfoot -14.0107 44.8003
ltoes 42.8453
1053
root 8.80709 16.8106 28.1426 -327.466 26.2152 363.263
lowerback -20.7718 -5.57891 0.610485
upperback -16.7818 -7.04128 1.80713
thorax -6.77576 -3.41281 0.591478
lowerneck -15.0528 0.0322112 -2.17878
upperneck 39.712 -0.263513 3.00969
head 16.9656 0.0620402 1.72243
rclavicle -6.2816e-014 -2.42517e-014
rhumerus -22.4566 -64.0847 18.6944
rradius 16.0531
rwrist 29.6831
rhand 2.54213 1.39921
rfingers 7.12502
rthumb 28.0229 -26.5284
lclavicle -6.2816e-014 -2.42517e-014
lhumerus 63.2879 1.99741 18.1946
lradius 29.9495
lwrist -12.6345
lhand 7.93237 24.8539
lfingers 7.12502
lthumb 33.1627 51.8197
rfemur -57.0704 4.82862 24.2245
rtibia 38.7453
rfoot -48.6533 -38.9248
rtoes 44.7984
lfemur -10.1703 -4.19609 -23.0011
ltibia 27.519
lfoot -14.6881 44.6133
ltoes 43.3109
1054
root 8.79071 16.8048 28.1486 -327.188 25.94 363.477
lowerback -20.8077 -5.59518 0.224869
upperback -17.0203 -7.00133 1.72703
thorax -7.00506 -3.35739 0.735321
lowerneck -14.6306 0.0671173 -2.04486
upperneck 39.7525 -0.249799 2.98582
head 16.8789 0.084972 1.68737
rclavicle -1.51076e-014 7.95139e-015
rhumerus -23.0132 -64.5181 19.3044
rradius 16.0591
rwrist 30.6138
rhand 2.71517 1.61207
rfingers 7.12502
rthumb 28.1884 -26.2884
lclavicle -1.51076e-014 7.95139e-015
lhumerus 63.3216 1.53187 17.744
lradius 29.9732
lwrist -11.9687
lhand 7.5311 25.2417
lfingers 7.12502
lthumb 32.7811 52.2878
rfemur -57.3658 5.54363 23.5464
rtibia 38.7367
rfoot -49.303 -39.3037
rtoes 45.0489
lfemur -10.4298 -4.10722 -23.2665
ltibia 27.552
lfoot -13.7282 44.9583
ltoes 42.553
1055
root 8.78153 16.8035 28.1531 -326.974 25.8665 363.557
lowerback -21.1619 -5.65962 0.0493775
upperback -16.9531 -7.05573 1.7517
thorax -6.7244 -3.36894 0.809845
lowerneck -14.6919 0.118752 -1.99595
upperneck 39.7065 -0.188085 2.9924
head 16.8667 0.118878 1.69182
rclavicle -3.11098e-014 8.34896e-015
rhumerus -24.9311 -67.6308 21.4316
rradius 15.893
rwrist 33.6101
rhand 2.71142 1.94731
rfingers 7.12502
rthumb 28.1848 -25.9537
lclavicle -3.11098e-014 8.34896e-015
lhumerus 63.4274 1.84503 18.0106
lradius 29.8769
lwrist -11.7476
lhand 7.72856 24.7285
lfingers 7.12502
lthumb 32.9689 51.7353
rfemur -57.593 5.78351 23.3247
rtibia 38.7406
rfoot -49.588 -39.4039
rtoes 45.1167
lfemur -10.7165 -4.03095 -23.3549
ltibia 27.56
lfoot -8.08444 46.1858
ltoes 38.6877
1056
root 8.77829 16.8062 28.1509 -326.899 25.9251 363.661
lowerback -21.1542 -5.73457 0.00695343
upperback -16.9343 -7.14862 1.76855
thorax -6.69765 -3.41217 0.836067
lowerneck -14.9822 0.209282 -1.83649
upperneck 39.8465 -0.0577716 2.8932
head 17.0128 0.182829 1.64922
rclavicle 4.81059e-014 -5.56597e-015
rhumerus -27.0481 -70.3552 23.7604
rradius 15.7457
rwrist 36.4708
rhand 2.92632 2.40012
rfingers 7.12502
rthumb 28.3901 -25.4669
lclavicle 4.81059e-014 -5.56597e-015
lhumerus 63.3112 2.14882 18.2163
lradius 29.9262
lwrist -11.691
lhand 8.07836 24.0514
lfingers 7.12502
lthumb 33.3015 50.9875
rfemur -57.6457 5.56909 23.342
rtibia 38.7399
rfoot -49.2944 -39.4827
rtoes 44.8959
lfemur -10.8141 -4.02307 -23.4318
ltibia 27.5846
lfoot -1.90005 46.6585
ltoes 33.812
